<?xml version="1.0" encoding="UTF-8"?>
<svg width="24px" height="24px" viewBox="0 0 24 24" version="1.1" xmlns="http://www.w3.org/2000/svg" xmlns:xlink="http://www.w3.org/1999/xlink">
    <title>币种/air@10x</title>
    <g id="币种/air" stroke="none" stroke-width="1" fill="none" fill-rule="evenodd">
        <g>
            <circle id="椭圆形" fill="#484FE5" cx="12" cy="12" r="12"></circle>
            <g id="编组" transform="translate(4.058807, 5.470588)" fill="#FFFFFF">
                <g transform="translate(-0.000000, 0.000000)" id="形状结合">
                    <path d="M3.58058754,0.0481700714 C3.76094048,-0.0315946344 3.97023459,-0.0113005168 4.13258754,0.10164066 C4.21358754,0.157405366 4.27941106,0.237523013 4.31929342,0.322228895 L4.31929342,0.322228895 L4.33976401,0.368111248 L4.34805812,0.388228895 L4.36446989,0.42864066 L4.43046989,0.590464189 L4.95264636,1.88646419 C5.29711695,2.75187595 5.63523459,3.62011125 5.96364636,4.49346419 C6.29170518,5.36681713 6.61111695,6.24440537 6.90988165,7.13487595 L6.90988165,7.13487595 L6.97305812,7.32864066 C7.17211695,7.2329936 7.37752871,7.14722889 7.59458754,7.07187595 C7.84023459,6.99546419 8.09841106,6.91358184 8.43176401,6.96811125 C8.60382283,6.99987595 8.74429342,7.08511125 8.85582283,7.17687595 C8.96664636,7.27093478 9.05788165,7.37011125 9.13605812,7.47369948 C9.29294048,7.6799936 9.40605812,7.89634654 9.51494048,8.10952301 C9.62558754,8.32164066 9.72352871,8.53517007 9.82217577,8.74464066 C9.92488165,8.95075831 10.0265287,9.15811125 10.1408817,9.33581713 C10.1959405,9.42211125 10.2626464,9.50593478 10.3101169,9.53805242 C10.3178817,9.54352301 10.3203522,9.54405242 10.3240581,9.54546419 C10.3314699,9.54211125 10.3480581,9.53434654 10.3664111,9.51987595 C10.426764,9.47540537 10.4991169,9.39758184 10.561764,9.31358184 C10.6261758,9.22905242 10.6881169,9.13711125 10.7488228,9.04287595 C10.8719993,8.85475831 10.9861758,8.65446419 11.1022934,8.44975831 C11.2229993,8.24452301 11.3359405,8.04087595 11.5152346,7.82646419 C11.5625287,7.77246419 11.6142346,7.71634654 11.6950581,7.65740537 C11.737764,7.62828772 11.788764,7.59634654 11.8665875,7.57322889 C11.9415875,7.54940537 12.0619405,7.54428772 12.1639405,7.58911125 C12.2650581,7.63305242 12.3261169,7.70134654 12.3635287,7.7519936 C12.3975875,7.79752301 12.4219405,7.84375831 12.4422346,7.88875831 C12.4815875,7.97875831 12.5001169,8.06134654 12.5126464,8.13793478 C12.5528817,8.43934654 12.5235875,8.67917007 12.4988817,8.90311125 C12.4882934,9.0119936 12.4713522,9.11928772 12.4720581,9.19111125 C12.4717052,9.19287595 12.4717052,9.19446419 12.4715287,9.19622889 C12.5126464,9.18617007 12.5599405,9.17046419 12.6026464,9.15175831 C12.6539993,9.13093478 12.6940581,9.11028772 12.7365875,9.08858184 C12.7785875,9.06317007 12.8221758,9.03669948 12.8611758,9.00105242 C12.9411169,8.93293478 13.0194699,8.85546419 13.0881169,8.76669948 C13.1611758,8.68181713 13.2255875,8.58758184 13.2873522,8.49034654 C13.4089405,8.29446419 13.4964699,8.07069948 13.6074699,7.8539936 C13.7078817,7.63252301 13.8575287,7.41793478 13.9994111,7.24658184 C14.1481758,7.06711125 14.3047052,6.87864066 14.4884111,6.69775831 C14.671764,6.51722889 14.8852934,6.34534654 15.1279405,6.21246419 C15.3721758,6.08222889 15.6409405,6.00052301 15.904764,5.95658184 C15.9711169,5.94264066 16.0369405,5.93646419 16.102764,5.92993478 C16.1685875,5.92305242 16.2356464,5.91528772 16.2961758,5.91511125 C16.4407052,5.90928772 16.4950581,5.91652301 16.5901758,5.89922889 C16.6778817,5.88617007 16.7613522,5.86322889 16.8201169,5.83693478 C16.8804699,5.80905242 16.9021758,5.78858184 16.9060581,5.79352301 C16.984764,5.60893478 17.1979405,5.52317007 17.3825287,5.60169948 C17.5671169,5.68040537 17.6528817,5.89358184 17.5743522,6.07817007 C17.4741169,6.29469948 17.3002934,6.41434654 17.1571758,6.48352301 C17.0091169,6.55411125 16.8691758,6.58869948 16.7317052,6.61164066 C16.6619993,6.62275831 16.5968817,6.63034654 16.5206464,6.63458184 L16.5206464,6.63458184 L16.339764,6.63564066 C16.2832934,6.63405242 16.2328228,6.63934654 16.1812934,6.64322889 C16.129764,6.64711125 16.0777052,6.64993478 16.0281169,6.65946419 C15.6201169,6.71081713 15.2588817,6.88958184 14.9391169,7.17758184 C14.6249993,7.46364066 14.2965875,7.82805242 14.0343522,8.17764066 C13.7645287,8.54081713 13.5331758,8.94405242 13.1428228,9.29081713 C13.0951758,9.33493478 13.0394111,9.37393478 12.9825875,9.41169948 C12.9222346,9.44822889 12.8608228,9.48281713 12.8045287,9.50717007 C12.6855875,9.55746419 12.5698228,9.61358184 12.3921169,9.62275831 C12.3469405,9.62293478 12.2939993,9.61675831 12.2403522,9.59311125 C12.1867052,9.57017007 12.1387052,9.52781713 12.1095875,9.48440537 C12.0513522,9.39546419 12.0432346,9.31728772 12.0361758,9.24846419 C12.0195875,9.11152301 12.0326464,8.99205242 12.0329993,8.87275831 C12.0409405,8.66417007 12.0365287,8.45311125 11.9961169,8.27946419 C11.9168817,8.44693478 11.8383522,8.66364066 11.7607052,8.87805242 L11.7607052,8.87805242 L11.6265875,9.20522889 C11.5741758,9.31269948 11.518764,9.42122889 11.4589405,9.53293478 C11.3961169,9.64269948 11.3265875,9.75317007 11.2369405,9.86505242 C11.1458817,9.97922889 11.0491758,10.0923465 10.8612346,10.2268171 C10.7618817,10.2876995 10.6328817,10.3741701 10.3861758,10.3953465 C10.2603522,10.4038171 10.1317052,10.3791112 10.0385287,10.3390524 C9.94288165,10.2993465 9.87458754,10.2520524 9.81776401,10.2066995 C9.70905812,10.1159936 9.64746989,10.0337583 9.59735224,9.96034654 C9.54829342,9.88587595 9.50823459,9.81969948 9.48017577,9.75140537 C9.36352871,9.48634654 9.31041106,9.25181713 9.25676401,9.01569948 C9.20558754,8.78081713 9.15635224,8.55352301 9.09070518,8.33505242 C9.02029342,8.11993478 8.93929342,7.90852301 8.81876401,7.73117007 C8.69876401,7.55611125 8.53535224,7.41440537 8.36646989,7.38740537 C8.18929342,7.35475831 7.96941106,7.42658184 7.77017577,7.50934654 C7.56582283,7.59264066 7.37735224,7.72005242 7.18994048,7.84446419 C7.1759993,7.85381713 7.16294048,7.86440537 7.1489993,7.87393478 C7.21252871,8.07722889 7.2749993,8.28122889 7.33429342,8.48805242 C7.39994048,8.71781713 7.46276401,8.94969948 7.51870518,9.18917007 C7.57358754,9.43128772 7.62652871,9.67075831 7.65141106,9.96122889 C7.65688165,10.0360524 7.66129342,10.1114054 7.65688165,10.2063465 C7.6499993,10.2991701 7.65088165,10.4013465 7.57641106,10.5871701 C7.56741106,10.6078171 7.55417577,10.6369348 7.54711695,10.6496407 L7.54711695,10.6496407 L7.52629342,10.686523 C7.51252871,10.7112289 7.49788165,10.7350524 7.48235224,10.7578171 C7.45182283,10.8044054 7.41846989,10.8471112 7.38388165,10.8873465 C7.31435224,10.9678171 7.23882283,11.0364642 7.16258754,11.0939936 C6.85323459,11.3209348 6.54564636,11.4086407 6.25217577,11.4622877 C5.95746989,11.5106407 5.66894048,11.5201701 5.37652871,11.4794054 C5.08376401,11.4336995 4.78870518,11.367876 4.46205812,11.160523 C4.30235224,11.0551701 4.12076401,10.8933465 4.00623459,10.6261701 C3.9509993,10.4943465 3.92346989,10.341523 3.92911695,10.200523 C3.93370518,10.0588171 3.96688165,9.93211125 4.00923459,9.82658184 C4.04946989,9.72405242 4.11017577,9.62240537 4.14546989,9.57175831 C4.18605812,9.50805242 4.22717577,9.45334654 4.26846989,9.39669948 C4.35052871,9.28746419 4.43805812,9.18775831 4.52664636,9.09511125 C4.70329342,8.90787595 4.88505812,8.73811125 5.07088165,8.57611125 C5.2559993,8.41340537 5.44694048,8.26075831 5.64758754,8.12117007 C5.82176401,7.99746419 5.99982283,7.87958184 6.18088165,7.76646419 C6.14488165,7.64328772 6.10994048,7.52011125 6.07288165,7.39711125 C5.80570518,6.51387595 5.51558754,5.63434654 5.21611695,4.75764066 C4.91629342,3.88093478 4.60623459,3.00705242 4.28964636,2.13528772 L4.28964636,2.13528772 L3.80894048,0.829758307 L3.78423459,0.763934777 C3.69441106,0.916228895 3.6119993,1.08511125 3.53505812,1.25646419 C3.16641106,2.08675831 2.86658754,2.96858184 2.56394048,3.8429936 C2.26764636,4.72005242 1.96729342,5.60452301 1.68264636,6.48264066 C1.12623459,8.24628772 0.659293418,10.0452289 0.259234594,11.8531701 C0.243881653,11.9239348 0.173822829,11.9687583 0.103058124,11.9534054 C0.033881653,11.9382289 -0.0104124647,11.8704642 0.0021169471,11.8012877 C0.3419993,9.96828772 0.747175771,8.15081713 1.2479993,6.34922889 C1.50935224,5.44869948 1.77988165,4.56740537 2.05164636,3.67411125 C2.33046989,2.78328772 2.6009993,1.89458184 2.9639993,1.00481713 C3.05717577,0.781581836 3.15476401,0.560111248 3.29470518,0.326993601 L3.29470518,0.326993601 L3.3209993,0.283405366 L3.33405812,0.261699483 C3.3389993,0.253934777 3.33970518,0.250934777 3.35735224,0.227464189 C3.41152871,0.153346542 3.49058754,0.087346542 3.58058754,0.0481700714 Z M6.38364636,8.49334654 C6.30423459,8.56675831 6.22605812,8.64122889 6.14929342,8.71711125 C5.82864636,9.03634654 5.51788165,9.36634654 5.24629342,9.70622889 C5.17852871,9.79128772 5.11764636,9.87828772 5.05605812,9.96140537 C5.00029342,10.0420524 4.93641106,10.1421112 4.92635224,10.1774054 C4.9109993,10.2255818 4.91823459,10.2259348 4.92052871,10.2349348 C4.92458754,10.2449936 4.95423459,10.2832877 5.01317577,10.3199936 C5.13088165,10.395876 5.32252871,10.4512877 5.51223459,10.4745818 C5.70441106,10.4973465 5.90594048,10.5026407 6.09546989,10.4742289 C6.28358754,10.4477583 6.46376401,10.3877583 6.5789993,10.305523 C6.60758754,10.2852289 6.63141106,10.2640524 6.65064636,10.2430524 C6.66035224,10.2324642 6.66935224,10.2220524 6.67641106,10.2114642 L6.68208018,10.2036774 L6.68208018,10.2036774 C6.68894048,10.1864054 6.69194048,10.1701701 6.69211695,10.152523 C6.69511695,10.1170524 6.69423459,10.0694054 6.69194048,10.0217583 C6.68117577,9.82569948 6.64270518,9.60369948 6.59894048,9.38575831 C6.55446989,9.16640537 6.50188165,8.94511125 6.44576401,8.72381713 L6.44576401,8.72381713 Z M8.73499342,4.04507007 C8.84616989,4.03501125 8.95452283,4.03501125 9.05652283,4.05354066 C9.15887577,4.06854066 9.25399342,4.09907007 9.34346401,4.13295242 C9.42764048,4.1648936 9.46999342,4.25912889 9.43805224,4.34330537 C9.41758165,4.39712889 9.3716993,4.43383478 9.31928754,4.44495242 L9.31928754,4.44495242 L9.29934636,4.44901125 C9.22399342,4.46436419 9.15305224,4.4828936 9.08987577,4.51218772 C9.02599342,4.53795242 8.97164048,4.57695242 8.92452283,4.61507007 C8.87758165,4.65459948 8.8406993,4.70083478 8.81264048,4.74724654 C8.79834636,4.77018772 8.78758165,4.79454066 8.77875812,4.81712889 C8.77558165,4.82877595 8.77116989,4.8398936 8.77028754,4.84995242 C8.76905224,4.85524654 8.76887577,4.85983478 8.76975812,4.86354066 C8.76975812,4.86548184 8.76975812,4.86759948 8.77187577,4.86777595 C8.77328754,4.86795242 8.77275812,4.87148184 8.78193459,4.86107007 L8.779,4.863 L8.72298756,4.92823712 C8.59417299,5.04800412 8.40479454,5.07954962 8.24411601,5.0081328 L8.16658165,4.96377595 C7.96822871,4.82207007 7.92234636,4.54659948 8.06387577,4.34842301 C8.07940518,4.32971713 8.08522871,4.32512889 8.09334636,4.31736419 L8.09334636,4.31736419 L8.11558165,4.29795242 C8.1296993,4.28595242 8.14364048,4.27501125 8.15687577,4.26548184 C8.18422871,4.24501125 8.21087577,4.22877595 8.2376993,4.21165831 C8.2916993,4.18024654 8.34587577,4.15254066 8.40093459,4.13030537 C8.51122871,4.08565831 8.62381695,4.05654066 8.73499342,4.04507007 Z"></path>
                </g>
            </g>
        </g>
    </g>
</svg>